<svg height="480pt" viewBox="0 0 480 480" width="480pt" xmlns="http://www.w3.org/2000/svg"><path d="m72 416c-4.417969 0-8-3.582031-8-8v-206.871094c-14.101562 3.613282-23.972656 16.3125-24 30.871094v208h400v-24zm0 0" fill="#cff09e"/><path d="m8 440h464c0 17.671875-14.328125 32-32 32h-400c-17.671875 0-32-14.328125-32-32zm0 0" fill="#79bd9a"/><path d="m104 40v296c0 8.835938 7.164062 16 16 16h240c8.835938 0 16-7.164062 16-16v-264h-240c-17.671875 0-32-14.328125-32-32zm0 0" fill="#a8dba8"/><g fill="#cff09e"><path d="m106.398438 28c-4.03125 9.851562-2.886719 21.066406 3.058593 29.902344 5.941407 8.832031 15.898438 14.121094 26.542969 14.097656h240v-24h-240c-13.015625-.027344-24.71875-7.933594-29.601562-20zm0 0"/><path d="m216 136-32-16-32 16v-87.863281c0-4.492188 3.644531-8.136719 8.136719-8.136719h47.726562c4.492188 0 8.136719 3.644531 8.136719 8.136719zm0 0"/><path d="m240 408-88-88h40v-96.367188c0-8.632812 7-15.632812 15.632812-15.632812h64.734376c8.632812 0 15.632812 7 15.632812 15.632812v96.367188h40zm0 0"/><path d="m328 144c0 17.671875-14.328125 32-32 32s-32-14.328125-32-32 14.328125-32 32-32 32 14.328125 32 32zm0 0"/></g><path d="m168 392h-72c-4.417969 0-8 3.582031-8 8s3.582031 8 8 8h72c4.417969 0 8-3.582031 8-8s-3.582031-8-8-8zm0 0" fill="#3b8686"/><path d="m384 392h-72c-4.417969 0-8 3.582031-8 8s3.582031 8 8 8h72c4.417969 0 8-3.582031 8-8s-3.582031-8-8-8zm0 0" fill="#3b8686"/><path d="m296 104c-22.089844 0-40 17.910156-40 40s17.910156 40 40 40c4.417969 0 8-3.582031 8-8s-3.582031-8-8-8c-13.253906 0-24-10.746094-24-24s10.746094-24 24-24 24 10.746094 24 24c0 4.417969 3.582031 8 8 8s8-3.582031 8-8c-.027344-22.082031-17.917969-39.972656-40-40zm0 0" fill="#3b8686"/><path d="m472 432h-24v-200c-.027344-22.082031-17.917969-39.972656-40-40h-24v-168c0-13.253906-10.746094-24-24-24h-224c-22.082031.0273438-39.972656 17.917969-40 40v152h-24c-22.082031.027344-39.972656 17.917969-40 40v200h-24c-4.417969 0-8 3.582031-8 8 .0273438 22.082031 17.917969 39.972656 40 40h400c22.082031-.027344 39.972656-17.917969 40-40 0-4.417969-3.582031-8-8-8zm-282.335938-85.648438-18.351562-18.351562h20.6875c4.417969 0 8-3.582031 8-8v-96.375c.007812-4.210938 3.421875-7.621094 7.632812-7.625h64.734376c4.210937.003906 7.625 3.414062 7.632812 7.625v96.375c0 4.417969 3.582031 8 8 8h20.6875l-68.6875 68.6875zm145.726563-29.414062c-1.238281-2.988281-4.15625-4.9375-7.390625-4.9375h-32v-88.375c-.019531-13.042969-10.589844-23.613281-23.632812-23.625h-64.734376c-13.042968.011719-23.613281 10.582031-23.632812 23.625v88.375h-32c-3.234375 0-6.152344 1.949219-7.390625 4.9375s-.550781 6.429688 1.734375 8.71875l18.34375 18.34375h-44.6875c-4.417969 0-8-3.582031-8-8v-264.207031c6.882812 5.292969 15.316406 8.175781 24 8.207031h8v56c0 2.773438 1.433594 5.347656 3.792969 6.808594 2.355469 1.457031 5.300781 1.589844 7.78125.351562l28.425781-14.214844 28.425781 14.253907c2.484375 1.242187 5.4375 1.105469 7.800781-.363281 2.359376-1.46875 3.789063-4.054688 3.773438-6.835938v-56h136c2.730469-.027344 5.4375-.523438 8-1.472656v257.472656c0 4.417969-3.582031 8-8 8h-44.6875l18.34375-18.34375c2.289062-2.289062 2.972656-5.730469 1.734375-8.71875zm-127.390625-193.882812-20.425781-10.214844c-2.25-1.125-4.898438-1.125-7.148438 0l-20.425781 10.207031.136719-75.046875 47.863281.136719zm-72-107.054688h224c4.417969 0 8 3.582031 8 8v8h-112c-4.417969 0-8 3.582031-8 8s3.582031 8 8 8h112v8c0 4.417969-3.582031 8-8 8h-136v-15.863281c-.007812-8.910157-7.226562-16.128907-16.136719-16.136719h-47.726562c-8.910157.007812-16.128907 7.226562-16.136719 16.136719v15.863281h-8c-13.253906 0-24-10.746094-24-24s10.746094-24 24-24zm-88 216c0-13.253906 10.746094-24 24-24h24v128c0 13.253906 10.746094 24 24 24h60.6875l53.65625 53.65625c3.125 3.121094 8.1875 3.121094 11.3125 0l53.65625-53.65625h60.6875c13.253906 0 24-10.746094 24-24v-128h24c13.253906 0 24 10.746094 24 24v200h-384zm392 232h-400c-10.167969-.011719-19.230469-6.417969-22.632812-16h445.265624c-3.402343 9.582031-12.464843 15.988281-22.632812 16zm0 0" fill="#3b8686"/></svg>