<svg id="Capa_1" enable-background="new 0 0 512.007 512.007" height="512" viewBox="0 0 512.007 512.007" width="512" xmlns="http://www.w3.org/2000/svg"><g><path d="m393.92 267.853c0-75.448-60.651-136.73-135.857-137.749-75.529-1.023-138.324 59.759-139.644 135.284-.851 48.682 23.559 91.712 60.987 116.87 5.787 3.89 9.298 10.367 9.298 17.34v20.011l19.659 20h86.71l28.539-20v-20.012c0-6.959 3.49-13.436 9.266-17.317 36.814-24.729 61.042-66.746 61.042-114.427z" fill="#f6e266"/><path d="m258.063 130.105c-5.551-.075-11.03.192-16.424.766 69.197 7.313 123.117 65.846 123.117 136.983 0 47.681-24.228 89.697-61.041 114.427-5.776 3.88-9.266 10.358-9.266 17.317v40.012l29.164-20v-20.012c0-6.959 3.49-13.436 9.266-17.317 36.813-24.729 61.041-66.746 61.041-114.427 0-75.449-60.651-136.731-135.857-137.749z" fill="#ecbe6b"/><path d="m319.809 179.496c-42.434 17.759-84.868 17.759-127.302 0-4.094-1.713-6.771-5.708-6.771-10.145v-101.982h140.844v101.982c.001 4.437-2.677 8.432-6.771 10.145z" fill="#4a80aa"/><path d="m311.256 67.369v95.447c0 4.438-2.678 8.432-6.771 10.145-38.329 16.041-76.657 17.588-114.986 4.651.882.772 1.89 1.415 3.009 1.884 42.434 17.759 84.868 17.759 127.302 0 4.094-1.713 6.771-5.708 6.771-10.145v-101.982z" fill="#407093"/><path d="m365.264 71.501-107.922 59.387c-.737.406-1.631.406-2.368 0l-107.921-59.387c-1.696-.933-1.696-3.37 0-4.303l107.922-59.387c.737-.406 1.631-.406 2.368 0l107.922 59.387c1.695.933 1.695 3.37-.001 4.303z" fill="#365e7d"/><path d="m365.264 67.198-107.921-59.387c-.737-.406-1.631-.406-2.368 0l-12.952 7.127 94.969 52.26c1.696.933 1.696 3.37 0 4.303l-94.969 52.26 12.952 7.127c.737.406 1.631.406 2.368 0l107.922-59.387c1.695-.933 1.695-3.37-.001-4.303z" fill="#2b4d66"/><path d="m280.498 504.506h-48.68c-23.811 0-43.114-19.303-43.114-43.115v-41.783h134.909v41.783c0 23.812-19.303 43.115-43.115 43.115z" fill="#365e7d"/><path d="m294.449 419.609v41.783c0 23.812-19.303 43.115-43.115 43.115h29.164c23.811 0 43.114-19.303 43.114-43.115v-41.783z" fill="#2b4d66"/><g><path d="m393.468 281.255c-4.079-.618-7.919 2.193-8.539 6.291-5.443 35.899-25.939 68.159-56.231 88.509-7.88 5.293-12.585 14.094-12.585 23.542v12.513h-52.454v-83.24c16.632-3.471 29.164-18.243 29.164-35.89 0-4.143-3.357-7.5-7.5-7.5s-7.5 3.357-7.5 7.5c0 11.945-9.719 21.664-21.664 21.664s-21.663-9.719-21.663-21.664c0-4.143-3.357-7.5-7.5-7.5s-7.5 3.357-7.5 7.5c0 17.647 12.532 32.419 29.163 35.89v83.239h-52.454v-12.511c0-9.446-4.716-18.255-12.615-23.564-36.889-24.795-58.448-66.108-57.671-110.515.392-22.419 6.653-44.463 18.106-63.75 8.781-14.786 20.471-27.75 34.212-38.071v5.652c0 7.475 4.466 14.173 11.376 17.064 22.081 9.241 44.31 13.86 66.547 13.859 22.23-.001 44.47-4.621 66.545-13.859 6.911-2.892 11.377-9.59 11.377-17.064v-5.868c30.352 22.682 49.537 57.554 52.045 95.693.261 3.966 3.558 7.008 7.476 7.008.166 0 .333-.005.5-.017 4.133-.271 7.264-3.842 6.991-7.976-3.036-46.192-27.987-88.095-67.012-112.939v-48.03l34.799-19.149c3.181-1.75 5.156-5.092 5.156-8.723s-1.976-6.973-5.155-8.723l-107.927-59.388c-3.002-1.65-6.589-1.651-9.597.001l-49.063 26.999c-3.629 1.997-4.951 6.559-2.955 10.188 1.998 3.628 6.557 4.951 10.188 2.955l46.631-25.661 97.459 53.63c-6.663 3.667-49.085 27.011-54.678 30.089l-37.631-35.541c-3.011-2.844-7.758-2.71-10.602.303-2.845 3.011-2.709 7.758.303 10.602l34.128 32.232-28.977 15.946c-10.027-5.518-86.384-47.536-97.459-53.63l24.022-13.219c3.629-1.997 4.951-6.559 2.955-10.188-1.997-3.628-6.556-4.952-10.188-2.955l-32.053 17.639c-3.181 1.75-5.156 5.092-5.156 8.723s1.976 6.973 5.155 8.723l34.8 19.149v48.217c-19.229 12.305-35.46 29.055-47.108 48.671-12.783 21.524-19.771 46.127-20.208 71.147-.866 49.515 23.172 95.58 64.302 123.226 3.746 2.518 5.982 6.673 5.982 11.115v61.794c0 27.909 22.706 50.614 50.615 50.614h11.227c4.143 0 7.5-3.357 7.5-7.5s-3.357-7.5-7.5-7.5h-11.227c-19.639 0-35.615-15.977-35.615-35.614v-34.283h119.909v34.283c0 19.638-15.977 35.614-35.614 35.614h-7.466c-4.143 0-7.5 3.357-7.5 7.5s3.357 7.5 7.5 7.5h7.466c27.909 0 50.614-22.705 50.614-50.614v-41.783c0-.007-.001-.013-.001-.019v-19.993c0-4.442 2.224-8.589 5.949-11.091 33.773-22.688 56.626-58.666 62.697-98.712.621-4.096-2.196-7.919-6.291-8.54zm-142.106-143.794c1.501.825 3.148 1.238 4.796 1.238 1.647 0 3.297-.413 4.801-1.239l29.306-16.127v39.981c0 4.143 3.357 7.5 7.5 7.5s7.5-3.357 7.5-7.5v-48.235l13.816-7.603v63.875c0 1.409-.851 2.676-2.167 3.227-40.315 16.874-81.196 16.874-121.512 0-1.315-.551-2.166-1.817-2.166-3.227v-63.875z"/><path d="m286.254 465.74c0-4.143-3.357-7.5-7.5-7.5h-45.19c-4.143 0-7.5 3.357-7.5 7.5s3.357 7.5 7.5 7.5h45.19c4.142 0 7.5-3.357 7.5-7.5z"/></g></g></svg>