<?xml version="1.0" encoding="utf-8"?>
<!-- Generator: Adobe Illustrator 24.0.1, SVG Export Plug-In . SVG Version: 6.00 Build 0)  -->
<svg version="1.1" id="Layer_3" xmlns="http://www.w3.org/2000/svg" xmlns:xlink="http://www.w3.org/1999/xlink" x="0px" y="0px"
	 viewBox="0 0 1000 800" style="enable-background:new 0 0 1000 800;" xml:space="preserve">
<style type="text/css">
	.st0{display:none;}
	.st1{display:inline;filter:url(#Adobe_OpacityMaskFilter);}
	.st2{fill:url(#XMLID_7_);}
	.st3{display:inline;mask:url(#XMLID_6_);}
	.st4{display:inline;}
	.st5{filter:url(#Adobe_OpacityMaskFilter_1_);}
	.st6{fill:url(#XMLID_9_);}
	.st7{mask:url(#XMLID_8_);}
	.st8{filter:url(#Adobe_OpacityMaskFilter_2_);}
	.st9{fill:url(#XMLID_11_);}
	.st10{mask:url(#XMLID_10_);}
	.st11{filter:url(#Adobe_OpacityMaskFilter_3_);}
	.st12{fill:url(#XMLID_13_);}
	.st13{display:none;mask:url(#XMLID_12_);}
	.st14{fill:#6E7072;}
	.st15{fill:#5A5A5D;}
	.st16{fill:url(#XMLID_14_);}
	.st17{fill:url(#XMLID_15_);}
	.st18{fill:url(#XMLID_16_);}
	.st19{fill:url(#XMLID_17_);}
	.st20{fill:url(#XMLID_18_);}
	.st21{fill:url(#XMLID_19_);}
	.st22{fill:url(#XMLID_20_);}
	.st23{fill:url(#XMLID_21_);}
	.st24{fill:url(#XMLID_22_);}
	.st25{fill:url(#XMLID_23_);}
	.st26{fill:url(#XMLID_24_);}
	.st27{fill:url(#XMLID_25_);}
	.st28{fill:url(#XMLID_26_);}
	.st29{fill:url(#XMLID_27_);}
	.st30{fill:url(#XMLID_28_);}
	.st31{fill:url(#XMLID_29_);}
	.st32{fill:url(#XMLID_30_);}
	.st33{fill:url(#XMLID_31_);}
	.st34{fill:url(#XMLID_32_);}
	.st35{fill:url(#XMLID_33_);}
</style>
<g id="Layer_2" class="st0">
	<defs>
		<filter id="Adobe_OpacityMaskFilter" filterUnits="userSpaceOnUse">
			<feColorMatrix  type="matrix" values="1 0 0 0 0  0 1 0 0 0  0 0 1 0 0  0 0 0 1 0"/>
		</filter>
	</defs>
	<mask maskUnits="userSpaceOnUse" id="XMLID_6_" class="st4">
		<g id="XMLID_1513_" style="filter:url(#Adobe_OpacityMaskFilter);">
			
				<linearGradient id="XMLID_7_" gradientUnits="userSpaceOnUse" x1="1984.6409" y1="1760.5367" x2="1833.9009" y2="1659.2655" gradientTransform="matrix(-0.9923 0.1239 -0.1239 -0.9923 979.8064 250.7552)">
				<stop  offset="0" style="stop-color:#FFFFFF"/>
				<stop  offset="1" style="stop-color:#231F20"/>
			</linearGradient>
			<polygon id="XMLID_1514_" class="st2" points="-992.58,-1233.09 -1149.61,-1213.48 -1138.44,-1124.08 -981.42,-1143.69 			"/>
		</g>
	</mask>
	<g id="XMLID_1515_" class="st3">
	</g>
	<g id="XMLID_1131_" class="st4">
		<defs>
			<filter id="Adobe_OpacityMaskFilter_1_" filterUnits="userSpaceOnUse">
				<feColorMatrix  type="matrix" values="1 0 0 0 0  0 1 0 0 0  0 0 1 0 0  0 0 0 1 0"/>
			</filter>
		</defs>
		<mask maskUnits="userSpaceOnUse" id="XMLID_8_">
			<g id="XMLID_1957_" class="st5">
				
					<linearGradient id="XMLID_9_" gradientUnits="userSpaceOnUse" x1="3466.4507" y1="5645.9106" x2="2980.6272" y2="5319.5205" gradientTransform="matrix(0.1239 0.9923 -0.9923 0.1239 -2431.6938 -4502.2554)">
					<stop  offset="0" style="stop-color:#FFFFFF"/>
					<stop  offset="1" style="stop-color:#231F20"/>
				</linearGradient>
				<polygon id="XMLID_1958_" class="st6" points="-7549.08,-1056.23 -7485.87,-550.13 -7197.74,-586.12 -7260.95,-1092.21 				"/>
			</g>
		</mask>
		<g id="XMLID_1959_" class="st7">
		</g>
		<g id="XMLID_649_">
			<defs>
				<filter id="Adobe_OpacityMaskFilter_2_" filterUnits="userSpaceOnUse">
					<feColorMatrix  type="matrix" values="1 0 0 0 0  0 1 0 0 0  0 0 1 0 0  0 0 0 1 0"/>
				</filter>
			</defs>
			<mask maskUnits="userSpaceOnUse" id="XMLID_10_">
				<g id="XMLID_653_" class="st8">
					
						<linearGradient id="XMLID_11_" gradientUnits="userSpaceOnUse" x1="244.2741" y1="-37.0694" x2="-241.5494" y2="-363.4591" gradientTransform="matrix(0.9923 -0.1239 0.1239 0.9923 -7219.4473 -1077.7969)">
						<stop  offset="0" style="stop-color:#FFFFFF"/>
						<stop  offset="1" style="stop-color:#231F20"/>
					</linearGradient>
					<polygon id="XMLID_654_" class="st9" points="-7674.91,-1200.4 -7168.81,-1263.61 -7204.8,-1551.74 -7710.89,-1488.54 					"/>
				</g>
			</mask>
			<g id="XMLID_650_" class="st10">
			</g>
		</g>
	</g>
	<g id="XMLID_1714_" class="st4">
	</g>
	<g id="XMLID_648_" class="st4">
	</g>
</g>
<defs>
	<filter id="Adobe_OpacityMaskFilter_3_" filterUnits="userSpaceOnUse">
		<feColorMatrix  type="matrix" values="1 0 0 0 0  0 1 0 0 0  0 0 1 0 0  0 0 0 1 0"/>
	</filter>
</defs>
<mask maskUnits="userSpaceOnUse" id="XMLID_12_">
	<g id="XMLID_2290_" class="st11">
		
			<linearGradient id="XMLID_13_" gradientUnits="userSpaceOnUse" x1="6753.0596" y1="1568.644" x2="6529.333" y2="1418.3385" gradientTransform="matrix(-0.9923 0.1239 -0.1239 -0.9923 979.8064 250.7552)">
			<stop  offset="0" style="stop-color:#FFFFFF"/>
			<stop  offset="1" style="stop-color:#231F20"/>
		</linearGradient>
		<polygon id="XMLID_641_" class="st12" points="-5596.36,-443.52 -5829.42,-414.41 -5812.85,-281.73 -5579.79,-310.84 		"/>
	</g>
</mask>
<g id="XMLID_2292_" class="st13">
</g>
<g id="XMLID_686_">
	<g id="XMLID_1398_">
		<rect id="XMLID_1399_" x="272.44" y="572.24" class="st14" width="482.39" height="1.92"/>
		<g>
			<g>
				<path class="st15" d="M276.95,554.62l3.97-4.59c3.76,3.92,8.97,6.51,14.4,6.51c6.85,0,10.91-3.43,10.91-8.53
					c0-5.36-3.78-7.07-8.71-9.24l-7.5-3.33c-4.86-2.09-10.57-5.8-10.57-13.52c0-8.02,6.95-13.94,16.43-13.94
					c6.19,0,11.7,2.7,15.37,6.5l-3.52,4.29c-3.2-3.04-7.02-4.92-11.84-4.92c-5.85,0-9.73,2.97-9.73,7.67c0,5.06,4.55,6.95,8.64,8.69
					l7.44,3.24c6.04,2.61,10.75,6.23,10.75,14.04c0,8.29-6.81,14.92-17.78,14.92C287.88,562.41,281.51,559.41,276.95,554.62z"/>
				<path class="st15" d="M334.06,514.6h-15.79v-5.66h38.21v5.66H340.7v46.85h-6.64V514.6z"/>
				<path class="st15" d="M365.59,539.77v-30.82h6.64v31.01c0,12.62,5.3,16.58,12.11,16.58c6.91,0,12.37-3.97,12.37-16.58v-31.01
					h6.37v30.82c0,16.85-8.09,22.64-18.74,22.64S365.59,556.62,365.59,539.77z"/>
				<path class="st15" d="M417.1,508.95h13.06c16.05,0,24.65,9.38,24.65,26.06c0,16.68-8.6,26.44-24.36,26.44H417.1V508.95z
					 M429.66,555.97c12.2,0,18.28-7.69,18.28-20.96c0-13.27-6.08-20.59-18.28-20.59h-5.92v41.55H429.66z"/>
				<path class="st15" d="M466,508.95h30.08v5.66h-23.44v16.45h19.77v5.66h-19.77v19.09h24.23v5.66H466V508.95z"/>
				<path class="st15" d="M507.9,508.95h6.86l18.89,33.01l5.63,10.87h0.32c-0.33-5.3-0.84-11.22-0.84-16.71v-27.17h6.31v52.51h-6.86
					l-18.89-33.04l-5.63-10.84h-0.32c0.33,5.31,0.84,10.91,0.84,16.4v27.48h-6.31V508.95z"/>
				<path class="st15" d="M570.22,514.6h-15.79v-5.66h38.21v5.66h-15.79v46.85h-6.64V514.6z"/>
				<path class="st15" d="M617.87,508.95h6.64v21.99h24.27v-21.99h6.64v52.51h-6.64v-24.69h-24.27v24.69h-6.64V508.95z"/>
				<path class="st15" d="M669.5,539.77v-30.82h6.64v31.01c0,12.62,5.3,16.58,12.11,16.58c6.91,0,12.37-3.97,12.37-16.58v-31.01
					h6.37v30.82c0,16.85-8.09,22.64-18.74,22.64C677.6,562.41,669.5,556.62,669.5,539.77z"/>
				<path class="st15" d="M721,508.95h15.49c10.61,0,17.95,3.63,17.95,12.86c0,5.19-2.75,9.8-7.63,11.4v0.32
					c6.24,1.24,10.61,5.38,10.61,12.56c0,10.32-8.12,15.36-19.75,15.36H721V508.95z M735.37,531.29c8.88,0,12.55-3.29,12.55-8.62
					c0-6.13-4.18-8.42-12.25-8.42h-8.03v17.04H735.37z M736.73,556.15c8.92,0,14.18-3.23,14.18-10.31c0-6.47-5.06-9.43-14.18-9.43
					h-9.08v19.74H736.73z"/>
			</g>
		</g>
	</g>
	<g id="XMLID_714_">
		<linearGradient id="XMLID_14_" gradientUnits="userSpaceOnUse" x1="472.8038" y1="181.2606" x2="274.5197" y2="462.3618">
			<stop  offset="0" style="stop-color:#8CC542"/>
			<stop  offset="0.5502" style="stop-color:#079247"/>
			<stop  offset="1" style="stop-color:#0C6B38"/>
		</linearGradient>
		<path id="XMLID_3002_" class="st16" d="M487.79,224.32c0,0-20.14-38.03-74.33-23.24C413.47,201.07,427.89,254.15,487.79,224.32z"
			/>
		<linearGradient id="XMLID_15_" gradientUnits="userSpaceOnUse" x1="544.0624" y1="231.5251" x2="345.778" y2="512.6268">
			<stop  offset="0" style="stop-color:#8CC542"/>
			<stop  offset="0.5502" style="stop-color:#079247"/>
			<stop  offset="1" style="stop-color:#0C6B38"/>
		</linearGradient>
		<path id="XMLID_3004_" class="st17" d="M618.17,185.99c0,0-26.26,57.58-107.09,40.56C511.07,226.55,527.64,147.39,618.17,185.99z"
			/>
		<g id="XMLID_2758_">
			<radialGradient id="XMLID_16_" cx="502.5395" cy="328.0671" r="99.183" gradientUnits="userSpaceOnUse">
				<stop  offset="0" style="stop-color:#F1A421"/>
				<stop  offset="1" style="stop-color:#F1582E"/>
			</radialGradient>
			<path id="XMLID_2793_" class="st18" d="M638.51,362.53c0-0.28-0.02-0.55-0.02-0.83l-2.68,0.48L638.51,362.53z"/>
			<radialGradient id="XMLID_17_" cx="481.1537" cy="467.8902" r="64.8635" gradientUnits="userSpaceOnUse">
				<stop  offset="0" style="stop-color:#F1A421"/>
				<stop  offset="1" style="stop-color:#F1582E"/>
			</radialGradient>
			<path id="XMLID_3001_" class="st19" d="M391.2,449.95c0.17,0.17,0.34,0.32,0.5,0.49l1.12-0.28L391.2,449.95z"/>
			<radialGradient id="XMLID_18_" cx="526.0128" cy="227.989" r="67.4153" gradientUnits="userSpaceOnUse">
				<stop  offset="0" style="stop-color:#F1A421"/>
				<stop  offset="1" style="stop-color:#F1582E"/>
			</radialGradient>
			<path id="XMLID_3006_" class="st20" d="M605.52,280.6c-0.09-0.08-0.17-0.14-0.26-0.22l-0.48,0.12L605.52,280.6z"/>
			<linearGradient id="XMLID_19_" gradientUnits="userSpaceOnUse" x1="537.0201" y1="226.5575" x2="338.7358" y2="507.6592">
				<stop  offset="0" style="stop-color:#8CC542"/>
				<stop  offset="0.5502" style="stop-color:#079247"/>
				<stop  offset="1" style="stop-color:#0C6B38"/>
			</linearGradient>
			<polygon id="XMLID_3009_" class="st21" points="604.78,280.51 492.42,265.81 383.81,293.75 496.17,308.45 			"/>
			<radialGradient id="XMLID_20_" cx="502.5414" cy="328.067" r="99.1824" gradientUnits="userSpaceOnUse">
				<stop  offset="0" style="stop-color:#F1A421"/>
				<stop  offset="1" style="stop-color:#F1582E"/>
			</radialGradient>
			<polygon id="XMLID_3012_" class="st22" points="383.81,293.75 383.04,293.95 392.4,330.35 404.74,331.96 496.17,308.45 			"/>
			<radialGradient id="XMLID_21_" cx="526.0129" cy="227.9924" r="67.4137" gradientUnits="userSpaceOnUse">
				<stop  offset="0" style="stop-color:#F1A421"/>
				<stop  offset="1" style="stop-color:#F1582E"/>
			</radialGradient>
			<path id="XMLID_3014_" class="st23" d="M605.26,280.38c-2.94-2.57-6-4.85-9.17-6.8c-20.69-12.69-50.66-15.67-71.76-15.98
				l-31.92,8.21l112.36,14.69L605.26,280.38z"/>
			<radialGradient id="XMLID_22_" cx="548.8417" cy="226.7354" r="450.8204" gradientUnits="userSpaceOnUse">
				<stop  offset="0" style="stop-color:#F1A421"/>
				<stop  offset="1" style="stop-color:#F1582E"/>
			</radialGradient>
			<path id="XMLID_2789_" class="st24" d="M596.09,273.59c-20.69-12.69-50.66-15.67-71.76-15.98c-7.24-0.11-13.43,0.1-17.84,0.34
				l3.55-72.53c0.12-2.52-0.76-4.98-2.44-6.85c-5.85-6.49-16.63-2.35-16.63,6.39v72.88c-10.1-0.44-26.94-0.55-44.47,1.99l45.91,6
				l112.36,14.69l0.48-0.12C602.33,277.81,599.26,275.53,596.09,273.59z"/>
			<linearGradient id="XMLID_23_" gradientUnits="userSpaceOnUse" x1="576.7128" y1="254.556" x2="378.4285" y2="535.6575">
				<stop  offset="0" style="stop-color:#8CC542"/>
				<stop  offset="0.5502" style="stop-color:#079247"/>
				<stop  offset="1" style="stop-color:#0C6B38"/>
			</linearGradient>
			<polygon id="XMLID_3015_" class="st25" points="635.8,362.18 497.15,344.05 361.49,368.27 361.53,368.45 499.57,386.5 			"/>
			<radialGradient id="XMLID_24_" cx="502.5413" cy="328.067" r="99.1047" gradientUnits="userSpaceOnUse">
				<stop  offset="0" style="stop-color:#F1A421"/>
				<stop  offset="1" style="stop-color:#F1582E"/>
			</radialGradient>
			<path id="XMLID_3021_" class="st26" d="M638.48,361.7c-0.21-12.61-2.08-24.51-5.29-35.34l-21.36-2.79l-114.67,20.48l138.65,18.13
				L638.48,361.7z"/>
			<g id="XMLID_2769_">
				<linearGradient id="XMLID_25_" gradientUnits="userSpaceOnUse" x1="618.0275" y1="283.6987" x2="419.7431" y2="564.8004">
					<stop  offset="0" style="stop-color:#8CC542"/>
					<stop  offset="0.5502" style="stop-color:#079247"/>
					<stop  offset="1" style="stop-color:#0C6B38"/>
				</linearGradient>
				<polygon id="XMLID_2785_" class="st27" points="392.82,450.16 507.82,465.2 616.82,438.23 504.24,422.59 				"/>
				
					<radialGradient id="XMLID_26_" cx="2073.2539" cy="-644.8433" r="73.1506" gradientTransform="matrix(1.3894 -0.3438 0.2402 0.9707 -2188.8716 1775.524)" gradientUnits="userSpaceOnUse">
					<stop  offset="0" style="stop-color:#F1A421"/>
					<stop  offset="1" style="stop-color:#F1582E"/>
				</radialGradient>
				<path id="XMLID_2791_" class="st28" d="M619.87,437.47l-3.05,0.76l2.37,0.33C619.42,438.21,619.64,437.84,619.87,437.47z"/>
				
					<radialGradient id="XMLID_27_" cx="2073.2539" cy="-645.3422" r="73.0112" gradientTransform="matrix(1.3894 -0.3438 0.2402 0.9707 -2188.8716 1775.524)" gradientUnits="userSpaceOnUse">
					<stop  offset="0" style="stop-color:#F1A421"/>
					<stop  offset="1" style="stop-color:#F1582E"/>
				</radialGradient>
				<path id="XMLID_3010_" class="st29" d="M626.75,422.9c-2.14,5.34-4.77,10.22-7.78,14.69l-114.72-15l112.57,15.64l3.05-0.76
					C622.56,433.16,624.77,427.82,626.75,422.9z"/>
				
					<radialGradient id="XMLID_28_" cx="2073.2539" cy="-644.8454" r="73.1515" gradientTransform="matrix(1.3894 -0.3438 0.2402 0.9707 -2188.8716 1775.524)" gradientUnits="userSpaceOnUse">
					<stop  offset="0" style="stop-color:#F1A421"/>
					<stop  offset="1" style="stop-color:#F1582E"/>
				</radialGradient>
				<path id="XMLID_3005_" class="st30" d="M626.75,422.9c-2.14,5.34-4.77,10.22-7.78,14.69l-114.72-15l112.57,15.64l3.05-0.76
					C622.56,433.16,624.77,427.82,626.75,422.9z"/>
				<radialGradient id="XMLID_29_" cx="497.2942" cy="403.0191" r="99.0876" gradientUnits="userSpaceOnUse">
					<stop  offset="0" style="stop-color:#F1A421"/>
					<stop  offset="1" style="stop-color:#F1582E"/>
				</radialGradient>
				<path id="XMLID_3022_" class="st31" d="M626.75,422.9c2.56-6.37,4.66-12.69,6.35-18.93l-35.06-4.58l-93.79,23.21l114.72,15
					C621.98,433.11,624.61,428.24,626.75,422.9z"/>
			</g>
			<radialGradient id="XMLID_30_" cx="481.1546" cy="467.8929" r="64.8643" gradientUnits="userSpaceOnUse">
				<stop  offset="0" style="stop-color:#F1A421"/>
				<stop  offset="1" style="stop-color:#F1582E"/>
			</radialGradient>
			<path id="XMLID_3027_" class="st32" d="M392.82,450.16l-1.12,0.28c16.06,15.71,37.54,24.47,57.18,29.35l58.94-14.58
				L392.82,450.16z"/>
			<g id="XMLID_2786_">
				<radialGradient id="XMLID_31_" cx="548.8318" cy="226.7225" r="450.8519" gradientUnits="userSpaceOnUse">
					<stop  offset="0" style="stop-color:#F1A421"/>
					<stop  offset="1" style="stop-color:#F1582E"/>
				</radialGradient>
				<path id="XMLID_2790_" class="st33" d="M598.04,399.38l-98.46-12.88l-138.05-18.05l-0.03,0c0.35,11.6,2.12,23.75,5.54,36.2
					l0.98,0.13l16.89,2.21l119.34,15.6l114.72,15c3.01-4.47,5.64-9.35,7.78-14.69c2.56-6.37,4.66-12.69,6.35-18.93L598.04,399.38z"
					/>
				<radialGradient id="XMLID_32_" cx="548.8417" cy="226.7352" r="450.8206" gradientUnits="userSpaceOnUse">
					<stop  offset="0" style="stop-color:#F1A421"/>
					<stop  offset="1" style="stop-color:#F1582E"/>
				</radialGradient>
				<path id="XMLID_3017_" class="st34" d="M633.19,326.36l-21.36-2.79l-115.66-15.12l-112.36-14.69l-1.14-0.15
					c-6.83,9.33-12.38,20.62-16.09,33.37l25.83,3.38l12.34,1.61l92.41,12.08l138.65,18.13l2.68-0.48
					C638.27,349.08,636.4,337.19,633.19,326.36z"/>
				<radialGradient id="XMLID_33_" cx="548.8418" cy="226.7353" r="450.8201" gradientUnits="userSpaceOnUse">
					<stop  offset="0" style="stop-color:#F1A421"/>
					<stop  offset="1" style="stop-color:#F1582E"/>
				</radialGradient>
				<path id="XMLID_3018_" class="st35" d="M392.82,450.16l-1.12,0.28c16.06,15.71,37.54,24.47,57.18,29.35
					c25.06,6.22,47.13,6.12,51.09,6.04c5,0.1,38.83,0.24,71.14-12.35l-63.29-8.28L392.82,450.16z"/>
			</g>
		</g>
	</g>
</g>
</svg>
